<svg width="35" height="35" xmlns="http://www.w3.org/2000/svg" xmlns:xlink="http://www.w3.org/1999/xlink" zoomAndPan="magnify" viewBox="0 0 375 374.999991" preserveAspectRatio="xMidYMid meet" version="1.0"><defs><clipPath id="3d6ca76171"><path d="M 112.5 112.5 L 262.5 112.5 L 262.5 262.5 L 112.5 262.5 Z M 112.5 112.5 " clip-rule="nonzero"/></clipPath></defs><g clip-path="url(#3d6ca76171)"><path fill="#ffffff" d="M 248.515625 217.78125 C 248.179688 225.09375 246.957031 229.066406 245.941406 231.703125 C 244.578125 235.203125 242.953125 237.703125 240.3125 240.328125 C 237.703125 242.953125 235.203125 244.574219 231.703125 245.921875 C 229.066406 246.953125 225.078125 248.179688 217.765625 248.527344 C 209.863281 248.878906 207.519531 248.953125 187.476562 248.953125 C 167.449219 248.953125 165.089844 248.878906 157.183594 248.527344 C 149.875 248.179688 145.902344 246.953125 143.265625 245.921875 C 139.75 244.574219 137.265625 242.953125 134.640625 240.328125 C 132 237.703125 130.375 235.203125 129.027344 231.703125 C 128.011719 229.066406 126.769531 225.09375 126.457031 217.78125 C 126.070312 209.878906 126 207.5 126 187.496094 C 126 167.449219 126.070312 165.089844 126.457031 157.183594 C 126.769531 149.875 128.011719 145.902344 129.027344 143.242188 C 130.375 139.75 132 137.261719 134.640625 134.636719 C 137.265625 132.019531 139.75 130.390625 143.265625 129.027344 C 145.902344 127.992188 149.875 126.785156 157.183594 126.4375 C 165.089844 126.089844 167.449219 126 187.476562 126 C 207.519531 126 209.863281 126.089844 217.765625 126.4375 C 225.078125 126.785156 229.066406 127.992188 231.703125 129.027344 C 235.203125 130.390625 237.703125 132.019531 240.3125 134.636719 C 242.953125 137.261719 244.578125 139.75 245.941406 143.242188 C 246.957031 145.902344 248.179688 149.875 248.515625 157.183594 C 248.878906 165.089844 248.96875 167.449219 248.96875 187.496094 C 248.96875 207.5 248.878906 209.878906 248.515625 217.78125 Z M 262.015625 156.570312 C 261.648438 148.578125 260.386719 143.121094 258.515625 138.367188 C 256.613281 133.433594 254.058594 129.253906 249.878906 125.074219 C 245.714844 120.914062 241.535156 118.359375 236.601562 116.433594 C 231.832031 114.578125 226.390625 113.304688 218.398438 112.957031 C 210.402344 112.570312 207.851562 112.5 187.476562 112.5 C 167.121094 112.5 164.546875 112.570312 156.554688 112.957031 C 148.578125 113.304688 143.144531 114.578125 138.347656 116.433594 C 133.433594 118.359375 129.253906 120.914062 125.09375 125.074219 C 120.914062 129.253906 118.359375 133.433594 116.4375 138.367188 C 114.582031 143.121094 113.324219 148.578125 112.9375 156.570312 C 112.589844 164.5625 112.5 167.121094 112.5 187.496094 C 112.5 207.851562 112.589844 210.402344 112.9375 218.398438 C 113.324219 226.371094 114.582031 231.828125 116.4375 236.601562 C 118.359375 241.515625 120.914062 245.714844 125.09375 249.878906 C 129.253906 254.039062 133.433594 256.613281 138.347656 258.535156 C 143.144531 260.386719 148.578125 261.648438 156.554688 262.015625 C 164.546875 262.382812 167.121094 262.46875 187.476562 262.46875 C 207.851562 262.46875 210.402344 262.382812 218.398438 262.015625 C 226.390625 261.648438 231.832031 260.386719 236.601562 258.535156 C 241.535156 256.613281 245.714844 254.039062 249.878906 249.878906 C 254.058594 245.714844 256.613281 241.515625 258.515625 236.601562 C 260.386719 231.828125 261.648438 226.371094 262.015625 218.398438 C 262.382812 210.402344 262.46875 207.851562 262.46875 187.496094 C 262.46875 167.121094 262.382812 164.5625 262.015625 156.570312 Z M 262.015625 156.570312 " fill-opacity="1" fill-rule="nonzero"/></g><path fill="#ffffff" d="M 187.476562 212.46875 C 173.679688 212.46875 162.484375 201.289062 162.484375 187.492188 C 162.484375 173.675781 173.679688 162.484375 187.476562 162.484375 C 201.277344 162.484375 212.484375 173.675781 212.484375 187.492188 C 212.484375 201.289062 201.277344 212.46875 187.476562 212.46875 Z M 187.476562 148.964844 C 166.207031 148.964844 148.984375 166.226562 148.984375 187.492188 C 148.984375 208.742188 166.207031 225.984375 187.476562 225.984375 C 208.742188 225.984375 225.984375 208.742188 225.984375 187.492188 C 225.984375 166.226562 208.742188 148.964844 187.476562 148.964844 Z M 187.476562 148.964844 " fill-opacity="1" fill-rule="nonzero"/></svg>