<svg width="35" height="35" xmlns="http://www.w3.org/2000/svg" xmlns:xlink="http://www.w3.org/1999/xlink" zoomAndPan="magnify" viewBox="0 0 375 374.999991" preserveAspectRatio="xMidYMid meet" version="1.0"><defs><clipPath id="ba011770e1"><path d="M 112.5 112.5 L 262.5 112.5 L 262.5 262.5 L 112.5 262.5 Z M 112.5 112.5 " clip-rule="nonzero"/></clipPath></defs><g clip-path="url(#ba011770e1)"><path fill="#ffffff" d="M 249.035156 262.5 L 125.964844 262.5 C 125.078125 262.5 124.203125 262.410156 123.339844 262.238281 C 122.472656 262.066406 121.628906 261.808594 120.8125 261.472656 C 119.996094 261.132812 119.222656 260.71875 118.488281 260.226562 C 117.753906 259.734375 117.074219 259.175781 116.449219 258.550781 C 115.824219 257.925781 115.265625 257.246094 114.773438 256.511719 C 114.28125 255.777344 113.867188 255.003906 113.527344 254.1875 C 113.191406 253.371094 112.933594 252.527344 112.761719 251.660156 C 112.589844 250.796875 112.5 249.921875 112.5 249.035156 L 112.5 125.964844 C 112.5 125.078125 112.589844 124.203125 112.761719 123.339844 C 112.933594 122.472656 113.191406 121.628906 113.527344 120.8125 C 113.867188 119.996094 114.28125 119.222656 114.773438 118.488281 C 115.265625 117.753906 115.824219 117.074219 116.449219 116.449219 C 117.074219 115.824219 117.753906 115.265625 118.488281 114.773438 C 119.222656 114.28125 119.996094 113.867188 120.8125 113.527344 C 121.628906 113.191406 122.472656 112.933594 123.339844 112.761719 C 124.203125 112.589844 125.078125 112.5 125.964844 112.5 L 249.035156 112.5 C 249.921875 112.5 250.796875 112.589844 251.660156 112.761719 C 252.527344 112.933594 253.371094 113.191406 254.1875 113.527344 C 255.003906 113.867188 255.777344 114.28125 256.511719 114.773438 C 257.246094 115.265625 257.925781 115.824219 258.550781 116.449219 C 259.175781 117.074219 259.734375 117.753906 260.226562 118.488281 C 260.71875 119.222656 261.132812 119.996094 261.472656 120.8125 C 261.808594 121.628906 262.066406 122.472656 262.238281 123.339844 C 262.410156 124.203125 262.5 125.078125 262.5 125.964844 L 262.5 249.035156 C 262.5 249.921875 262.410156 250.796875 262.238281 251.660156 C 262.066406 252.527344 261.808594 253.371094 261.472656 254.1875 C 261.132812 255.003906 260.71875 255.777344 260.226562 256.511719 C 259.734375 257.246094 259.175781 257.925781 258.550781 258.550781 C 257.925781 259.175781 257.246094 259.734375 256.511719 260.226562 C 255.777344 260.71875 255.003906 261.132812 254.1875 261.472656 C 253.371094 261.808594 252.527344 262.066406 251.660156 262.238281 C 250.796875 262.410156 249.921875 262.5 249.035156 262.5 Z M 125.964844 117.574219 C 125.414062 117.574219 124.867188 117.628906 124.328125 117.734375 C 123.789062 117.84375 123.261719 118.003906 122.753906 118.214844 C 122.246094 118.425781 121.761719 118.683594 121.304688 118.988281 C 120.847656 119.296875 120.421875 119.644531 120.03125 120.03125 C 119.644531 120.421875 119.296875 120.847656 118.988281 121.304688 C 118.683594 121.761719 118.425781 122.246094 118.214844 122.753906 C 118.003906 123.261719 117.84375 123.789062 117.734375 124.328125 C 117.628906 124.867188 117.574219 125.414062 117.574219 125.964844 L 117.574219 249.035156 C 117.574219 249.585938 117.628906 250.132812 117.734375 250.671875 C 117.84375 251.210938 118.003906 251.738281 118.214844 252.246094 C 118.425781 252.753906 118.683594 253.238281 118.988281 253.695312 C 119.296875 254.152344 119.644531 254.578125 120.03125 254.96875 C 120.421875 255.355469 120.847656 255.703125 121.304688 256.011719 C 121.761719 256.316406 122.246094 256.574219 122.753906 256.785156 C 123.261719 256.996094 123.789062 257.15625 124.328125 257.265625 C 124.867188 257.371094 125.414062 257.425781 125.964844 257.425781 L 249.035156 257.425781 C 249.585938 257.425781 250.132812 257.371094 250.671875 257.265625 C 251.210938 257.15625 251.738281 256.996094 252.246094 256.785156 C 252.753906 256.574219 253.238281 256.316406 253.695312 256.011719 C 254.152344 255.703125 254.578125 255.355469 254.96875 254.96875 C 255.355469 254.578125 255.703125 254.152344 256.011719 253.695312 C 256.316406 253.238281 256.574219 252.753906 256.785156 252.246094 C 256.996094 251.738281 257.15625 251.210938 257.265625 250.671875 C 257.371094 250.132812 257.425781 249.585938 257.425781 249.035156 L 257.425781 125.964844 C 257.425781 125.414062 257.371094 124.867188 257.265625 124.328125 C 257.15625 123.789062 256.996094 123.261719 256.785156 122.753906 C 256.574219 122.246094 256.316406 121.761719 256.011719 121.304688 C 255.703125 120.847656 255.355469 120.421875 254.96875 120.03125 C 254.578125 119.644531 254.152344 119.296875 253.695312 118.988281 C 253.238281 118.683594 252.753906 118.425781 252.246094 118.214844 C 251.738281 118.003906 251.210938 117.84375 250.671875 117.734375 C 250.132812 117.628906 249.585938 117.574219 249.035156 117.574219 Z M 125.964844 117.574219 " fill-opacity="1" fill-rule="nonzero"/></g><path fill="#ffffff" d="M 243.421875 251.136719 L 131.578125 251.136719 C 131.070312 251.136719 130.570312 251.085938 130.074219 250.984375 C 129.578125 250.886719 129.09375 250.742188 128.628906 250.546875 C 128.160156 250.351562 127.714844 250.113281 127.292969 249.832031 C 126.875 249.550781 126.484375 249.230469 126.125 248.875 C 125.769531 248.515625 125.449219 248.125 125.167969 247.707031 C 124.886719 247.285156 124.648438 246.839844 124.453125 246.371094 C 124.257812 245.90625 124.113281 245.421875 124.015625 244.925781 C 123.914062 244.429688 123.863281 243.929688 123.863281 243.421875 L 123.863281 131.578125 C 123.863281 131.070312 123.914062 130.570312 124.015625 130.074219 C 124.113281 129.578125 124.257812 129.09375 124.453125 128.628906 C 124.648438 128.160156 124.886719 127.714844 125.167969 127.292969 C 125.449219 126.875 125.769531 126.484375 126.125 126.125 C 126.484375 125.769531 126.875 125.449219 127.292969 125.167969 C 127.714844 124.886719 128.160156 124.648438 128.628906 124.453125 C 129.09375 124.257812 129.578125 124.113281 130.074219 124.015625 C 130.570312 123.914062 131.070312 123.863281 131.578125 123.863281 L 243.421875 123.863281 C 243.929688 123.863281 244.429688 123.914062 244.925781 124.015625 C 245.421875 124.113281 245.90625 124.257812 246.371094 124.453125 C 246.839844 124.648438 247.285156 124.886719 247.707031 125.167969 C 248.125 125.449219 248.515625 125.769531 248.875 126.125 C 249.230469 126.484375 249.550781 126.875 249.832031 127.292969 C 250.113281 127.714844 250.351562 128.160156 250.546875 128.628906 C 250.742188 129.09375 250.886719 129.578125 250.984375 130.074219 C 251.085938 130.570312 251.136719 131.070312 251.136719 131.578125 L 251.136719 243.421875 C 251.136719 243.929688 251.085938 244.429688 250.984375 244.925781 C 250.886719 245.421875 250.742188 245.90625 250.546875 246.371094 C 250.351562 246.839844 250.113281 247.285156 249.832031 247.707031 C 249.550781 248.125 249.230469 248.515625 248.875 248.875 C 248.515625 249.230469 248.125 249.550781 247.707031 249.832031 C 247.285156 250.113281 246.839844 250.351562 246.371094 250.546875 C 245.90625 250.742188 245.421875 250.886719 244.925781 250.984375 C 244.429688 251.085938 243.929688 251.136719 243.421875 251.136719 Z M 131.578125 128.9375 C 131.226562 128.9375 130.890625 129.003906 130.566406 129.136719 C 130.246094 129.273438 129.957031 129.464844 129.710938 129.710938 C 129.464844 129.957031 129.273438 130.246094 129.136719 130.566406 C 129.003906 130.890625 128.9375 131.226562 128.9375 131.578125 L 128.9375 243.421875 C 128.9375 243.773438 129.003906 244.109375 129.136719 244.433594 C 129.273438 244.753906 129.464844 245.042969 129.710938 245.289062 C 129.957031 245.535156 130.246094 245.726562 130.566406 245.863281 C 130.890625 245.996094 131.226562 246.0625 131.578125 246.0625 L 243.421875 246.0625 C 243.773438 246.0625 244.109375 245.996094 244.433594 245.863281 C 244.753906 245.726562 245.042969 245.535156 245.289062 245.289062 C 245.535156 245.042969 245.726562 244.753906 245.863281 244.433594 C 245.996094 244.109375 246.0625 243.773438 246.0625 243.421875 L 246.0625 131.578125 C 246.0625 131.226562 245.996094 130.890625 245.863281 130.566406 C 245.726562 130.246094 245.535156 129.957031 245.289062 129.710938 C 245.042969 129.464844 244.753906 129.273438 244.433594 129.136719 C 244.109375 129.003906 243.773438 128.9375 243.421875 128.9375 Z M 131.578125 128.9375 " fill-opacity="1" fill-rule="nonzero"/><path fill="#ffffff" d="M 153.121094 240.597656 L 139.9375 240.597656 C 139.601562 240.597656 139.277344 240.53125 138.964844 240.402344 C 138.65625 240.273438 138.382812 240.089844 138.144531 239.851562 C 137.90625 239.617188 137.722656 239.339844 137.59375 239.03125 C 137.464844 238.71875 137.398438 238.394531 137.398438 238.058594 L 137.398438 165.554688 C 137.398438 165.21875 137.464844 164.894531 137.59375 164.582031 C 137.722656 164.273438 137.90625 164 138.144531 163.761719 C 138.382812 163.523438 138.65625 163.339844 138.964844 163.210938 C 139.277344 163.082031 139.601562 163.019531 139.9375 163.019531 L 153.121094 163.019531 C 153.457031 163.019531 153.78125 163.082031 154.089844 163.210938 C 154.402344 163.339844 154.675781 163.523438 154.914062 163.761719 C 155.152344 164 155.335938 164.273438 155.460938 164.582031 C 155.589844 164.894531 155.65625 165.21875 155.65625 165.554688 L 155.65625 238.058594 C 155.65625 238.394531 155.589844 238.71875 155.460938 239.03125 C 155.335938 239.339844 155.152344 239.617188 154.914062 239.851562 C 154.675781 240.089844 154.402344 240.273438 154.089844 240.402344 C 153.78125 240.53125 153.457031 240.597656 153.121094 240.597656 Z M 142.472656 235.523438 L 150.582031 235.523438 L 150.582031 168.089844 L 142.472656 168.089844 Z M 146.226562 155.8125 C 144.808594 155.828125 143.445312 155.566406 142.136719 155.019531 C 140.828125 154.476562 139.679688 153.695312 138.691406 152.675781 C 137.734375 151.664062 137 150.511719 136.492188 149.21875 C 135.984375 147.921875 135.738281 146.578125 135.753906 145.1875 C 135.753906 139.042969 140.386719 134.410156 146.527344 134.410156 C 152.671875 134.410156 157.132812 138.925781 157.152344 145.148438 C 157.238281 147.996094 156.25 150.640625 154.355469 152.59375 C 152.355469 154.664062 149.457031 155.804688 146.226562 155.804688 Z M 146.527344 139.484375 C 143.226562 139.484375 140.824219 141.882812 140.824219 145.1875 C 140.824219 148.40625 143.097656 150.742188 146.226562 150.742188 C 148.101562 150.742188 149.648438 150.164062 150.707031 149.066406 C 151.65625 148.085938 152.132812 146.773438 152.082031 145.273438 C 152.082031 145.246094 152.082031 145.214844 152.082031 145.1875 C 152.082031 141.714844 149.902344 139.476562 146.527344 139.476562 Z M 157.152344 145.1875 Z M 157.152344 145.1875 " fill-opacity="1" fill-rule="nonzero"/><path fill="#ffffff" d="M 236.710938 240.597656 L 223.527344 240.597656 C 223.191406 240.597656 222.867188 240.53125 222.554688 240.402344 C 222.246094 240.273438 221.972656 240.089844 221.734375 239.851562 C 221.496094 239.617188 221.3125 239.339844 221.183594 239.03125 C 221.054688 238.71875 220.992188 238.394531 220.992188 238.058594 L 220.992188 196.265625 C 220.992188 190.496094 219.855469 185.769531 217.703125 182.59375 C 215.324219 179.082031 211.742188 177.378906 206.75 177.378906 C 198.6875 177.378906 193.277344 183.25 191.5 189.066406 C 191.484375 189.109375 191.472656 189.148438 191.457031 189.191406 C 190.980469 190.496094 190.710938 192.417969 190.710938 194.464844 L 190.710938 238.058594 C 190.710938 238.394531 190.644531 238.71875 190.515625 239.03125 C 190.386719 239.339844 190.207031 239.617188 189.96875 239.851562 C 189.730469 240.089844 189.457031 240.273438 189.144531 240.402344 C 188.832031 240.53125 188.511719 240.597656 188.175781 240.597656 L 175 240.597656 C 174.664062 240.597656 174.339844 240.53125 174.03125 240.402344 C 173.71875 240.273438 173.445312 240.089844 173.207031 239.851562 C 172.96875 239.617188 172.785156 239.339844 172.65625 239.03125 C 172.527344 238.71875 172.464844 238.394531 172.464844 238.058594 L 172.464844 185.175781 C 172.464844 177.089844 172.28125 171.277344 171.871094 165.742188 C 171.847656 165.390625 171.890625 165.050781 172.011719 164.714844 C 172.128906 164.382812 172.304688 164.089844 172.546875 163.832031 C 172.789062 163.574219 173.070312 163.375 173.394531 163.234375 C 173.71875 163.09375 174.054688 163.023438 174.40625 163.023438 L 186.09375 163.023438 C 186.414062 163.023438 186.726562 163.082031 187.027344 163.203125 C 187.328125 163.320312 187.597656 163.488281 187.832031 163.710938 C 188.066406 163.933594 188.253906 164.1875 188.390625 164.480469 C 188.53125 164.773438 188.609375 165.078125 188.628906 165.402344 L 188.957031 170.6875 C 190.648438 168.878906 192.539062 167.316406 194.632812 166 C 199.433594 162.976562 205.140625 161.375 211.117188 161.375 C 215.121094 161.375 222.816406 162.253906 229.378906 168.125 C 235.945312 174 239.269531 182.960938 239.269531 194.773438 L 239.269531 238.070312 C 239.269531 238.40625 239.203125 238.730469 239.070312 239.042969 C 238.941406 239.355469 238.753906 239.628906 238.515625 239.867188 C 238.273438 240.101562 238 240.285156 237.683594 240.410156 C 237.371094 240.539062 237.046875 240.597656 236.710938 240.597656 Z M 226.0625 235.523438 L 234.175781 235.523438 L 234.175781 194.761719 C 234.175781 184.457031 231.417969 176.765625 225.976562 171.898438 C 220.46875 166.972656 213.734375 166.4375 211.09375 166.4375 C 199.800781 166.4375 192.46875 172.777344 189.375 178.707031 C 189.15625 179.128906 188.84375 179.460938 188.441406 179.703125 C 188.035156 179.949219 187.597656 180.074219 187.125 180.074219 L 186.824219 180.074219 C 186.503906 180.074219 186.191406 180.015625 185.890625 179.894531 C 185.589844 179.777344 185.320312 179.605469 185.085938 179.386719 C 184.851562 179.164062 184.664062 178.910156 184.527344 178.617188 C 184.390625 178.324219 184.308594 178.015625 184.289062 177.695312 L 183.6875 168.09375 L 177.105469 168.09375 C 177.398438 172.96875 177.535156 178.261719 177.535156 185.175781 L 177.535156 235.523438 L 185.648438 235.523438 L 185.648438 194.464844 C 185.648438 191.839844 186.007812 189.378906 186.675781 187.523438 C 187.332031 185.425781 188.273438 183.46875 189.507812 181.652344 C 190.742188 179.832031 192.214844 178.234375 193.921875 176.851562 C 195.738281 175.378906 197.746094 174.25 199.949219 173.46875 C 202.15625 172.691406 204.425781 172.300781 206.765625 172.304688 C 213.375 172.304688 218.613281 174.878906 221.914062 179.75 C 224.675781 183.824219 226.082031 189.378906 226.082031 196.265625 Z M 226.0625 235.523438 " fill-opacity="1" fill-rule="nonzero"/></svg>